<?xml version="1.0" encoding="UTF-8"?>
<svg xmlns="http://www.w3.org/2000/svg" xmlns:xlink="http://www.w3.org/1999/xlink" width="30pt" height="30pt" viewBox="0 0 30 30" version="1.1">
<g id="surface1">
<path style=" stroke:none;fill-rule:nonzero;fill:rgb(0%,0%,0%);fill-opacity:1;" d="M 24.648438 3.71875 L 19.53125 3.71875 L 19.53125 2.789062 C 19.53125 1.25 18.28125 0 16.742188 0 L 13.019531 0 C 11.480469 0 10.230469 1.25 10.230469 2.789062 L 10.230469 3.71875 L 5.117188 3.71875 C 3.832031 3.71875 2.789062 4.761719 2.789062 6.046875 L 2.789062 7.90625 C 2.789062 8.417969 3.207031 8.835938 3.71875 8.835938 L 26.042969 8.835938 C 26.554688 8.835938 26.972656 8.417969 26.972656 7.90625 L 26.972656 6.046875 C 26.972656 4.761719 25.929688 3.71875 24.648438 3.71875 Z M 12.089844 2.789062 C 12.089844 2.277344 12.507812 1.859375 13.019531 1.859375 L 16.742188 1.859375 C 17.253906 1.859375 17.671875 2.277344 17.671875 2.789062 L 17.671875 3.71875 L 12.089844 3.71875 Z M 12.089844 2.789062 "/>
<path style=" stroke:none;fill-rule:nonzero;fill:rgb(0%,0%,0%);fill-opacity:1;" d="M 4.554688 10.695312 C 4.390625 10.695312 4.257812 10.835938 4.265625 11 L 5.03125 27.105469 C 5.105469 28.59375 6.328125 29.761719 7.820312 29.761719 L 21.941406 29.761719 C 23.433594 29.761719 24.65625 28.59375 24.730469 27.105469 L 25.496094 11 C 25.503906 10.835938 25.371094 10.695312 25.207031 10.695312 Z M 18.601562 13.019531 C 18.601562 12.507812 19.015625 12.089844 19.53125 12.089844 C 20.046875 12.089844 20.460938 12.507812 20.460938 13.019531 L 20.460938 25.113281 C 20.460938 25.625 20.046875 26.042969 19.53125 26.042969 C 19.015625 26.042969 18.601562 25.625 18.601562 25.113281 Z M 13.949219 13.019531 C 13.949219 12.507812 14.367188 12.089844 14.882812 12.089844 C 15.394531 12.089844 15.8125 12.507812 15.8125 13.019531 L 15.8125 25.113281 C 15.8125 25.625 15.394531 26.042969 14.882812 26.042969 C 14.367188 26.042969 13.949219 25.625 13.949219 25.113281 Z M 9.300781 13.019531 C 9.300781 12.507812 9.71875 12.089844 10.230469 12.089844 C 10.746094 12.089844 11.160156 12.507812 11.160156 13.019531 L 11.160156 25.113281 C 11.160156 25.625 10.746094 26.042969 10.230469 26.042969 C 9.71875 26.042969 9.300781 25.625 9.300781 25.113281 Z M 9.300781 13.019531 "/>
</g>
</svg>
